<svg width="35" height="35" viewBox="0 0 35 35" fill="none" xmlns="http://www.w3.org/2000/svg">
<path d="M17.5 0C7.83594 0 0 8.03906 0 17.9453C0 25.875 5.01563 32.5938 11.9688 34.9688C12.0663 34.9899 12.1658 35.0004 12.2656 35C12.9141 35 13.1641 34.5234 13.1641 34.1094C13.1641 33.6797 13.1484 32.5547 13.1406 31.0547C12.5618 31.1904 11.9696 31.2611 11.375 31.2656C8.00781 31.2656 7.24219 28.6484 7.24219 28.6484C6.44531 26.5781 5.29688 26.0234 5.29688 26.0234C3.77344 24.9531 5.28906 24.9219 5.40625 24.9219H5.41406C7.17188 25.0781 8.09375 26.7812 8.09375 26.7812C8.96875 28.3125 10.1406 28.7422 11.1875 28.7422C11.8797 28.7283 12.5612 28.5686 13.1875 28.2734C13.3438 27.1172 13.7969 26.3281 14.2969 25.875C10.4141 25.4219 6.32813 23.8828 6.32813 17.0078C6.32813 15.0469 7.00781 13.4453 8.125 12.1953C7.94531 11.7422 7.34375 9.91406 8.29688 7.44531C8.42472 7.41472 8.55613 7.40158 8.6875 7.40625C9.32031 7.40625 10.75 7.64844 13.1094 9.28906C15.9762 8.48696 19.0082 8.48696 21.875 9.28906C24.2344 7.64844 25.6641 7.40625 26.2969 7.40625C26.4283 7.40158 26.5597 7.41472 26.6875 7.44531C27.6406 9.91406 27.0391 11.7422 26.8594 12.1953C27.9766 13.4531 28.6563 15.0547 28.6563 17.0078C28.6563 23.8984 24.5625 25.4141 20.6641 25.8594C21.2891 26.4141 21.8516 27.5078 21.8516 29.1797C21.8516 31.5781 21.8281 33.5156 21.8281 34.1016C21.8281 34.5234 22.0703 35 22.7188 35C22.8237 35.0005 22.9285 34.99 23.0313 34.9688C29.9922 32.5938 35 25.8672 35 17.9453C35 8.03906 27.1641 0 17.5 0Z" fill="white"/>
</svg>
