<svg width="35" height="35" viewBox="0 0 35 35" fill="none" xmlns="http://www.w3.org/2000/svg">
<path d="M32.2008 0H2.99063C1.39453 0 0 1.14844 0 2.72578V32.0008C0 33.5867 1.39453 35 2.99063 35H32.1922C33.7969 35 35 33.5773 35 32.0008V2.72578C35.0094 1.14844 33.7969 0 32.2008 0ZM10.8492 29.1742H5.83516V13.5844H10.8492V29.1742ZM8.51563 11.2141H8.47969C6.875 11.2141 5.83594 10.0195 5.83594 8.52422C5.83594 7.00156 6.90234 5.83516 8.54297 5.83516C10.1836 5.83516 11.1875 6.99297 11.2234 8.52422C11.2227 10.0195 10.1836 11.2141 8.51563 11.2141ZM29.1742 29.1742H24.1602V20.65C24.1602 18.6078 23.4305 17.2125 21.6164 17.2125C20.2305 17.2125 19.4102 18.15 19.0453 19.0633C18.9086 19.3914 18.8719 19.8383 18.8719 20.2945V29.1742H13.8578V13.5844H18.8719V15.7539C19.6016 14.7148 20.7414 13.2195 23.3938 13.2195C26.6852 13.2195 29.175 15.3891 29.175 20.0664L29.1742 29.1742Z" fill="white"/>
</svg>
